<?xml version="1.0" encoding="UTF-8" standalone="no"?>
<!DOCTYPE svg PUBLIC "-//W3C//DTD SVG 1.1//EN" "http://www.w3.org/Graphics/SVG/1.1/DTD/svg11.dtd">
<svg width="100%" height="100%" viewBox="0 0 3600 3600" version="1.1" xmlns="http://www.w3.org/2000/svg" xmlns:xlink="http://www.w3.org/1999/xlink" xml:space="preserve" xmlns:serif="http://www.serif.com/" style="fill-rule:evenodd;clip-rule:evenodd;stroke-linejoin:round;stroke-miterlimit:2;">
    <rect x="639" y="945" width="2527" height="1729" style="fill:rgb(235,235,235);"/>
    <path d="M2925,393.77L675,393.77C519.75,393.77 393.75,520.05 393.75,675.02L393.75,2925.02C393.75,3080.27 520.03,3206.27 675,3206.27L2925,3206.27C3080.25,3206.27 3206.25,3079.99 3206.25,2925.02L3206.25,675.02C3206.25,520.05 3079.97,393.77 2925,393.77ZM956.2,2519.97C925.544,2519.97 894.888,2507.314 872.669,2482.845C831.044,2436.72 834.981,2365.565 881.107,2323.935L1463.006,1799.955L880.816,1275.975C834.691,1234.35 830.754,1163.195 872.379,1117.065C914.003,1070.935 985.159,1067.284 1031.289,1108.627L1706.289,1716.127C1730.195,1737.783 1743.695,1768.158 1743.695,1799.939C1743.695,1831.72 1730.195,1862.095 1706.57,1883.47L1031.57,2490.97C1009.914,2510.376 982.914,2519.939 956.195,2519.939L956.2,2519.97ZM2643.7,2531.22L1687.47,2531.22C1625.314,2531.22 1574.97,2480.876 1574.97,2418.72C1574.97,2356.564 1625.314,2306.22 1687.47,2306.22L2643.7,2306.22C2705.856,2306.22 2756.2,2356.564 2756.2,2418.72C2756.2,2480.876 2705.856,2531.22 2643.7,2531.22Z" style="fill-rule:nonzero;"/>
    <g transform="matrix(1,0,0,1,-24,491)">
        <g transform="matrix(1,0,0,1,1803.938,1656.047)">
            <text x="0px" y="0px" style="font-family:'SFMono-Bold', 'SF Mono', monospace;font-weight:700;font-size:1088px;fill:white;">MW</text>
        </g>
    </g>
</svg>
